# xmcd
#
# Track frame offsets: 
#        150
#        17712
#        50487
#        66196
#        87831
#        118680
#        145270
#        165952
#        180380
#        196113
#        216937
#        239920
#
# Disc length: 3474 seconds
#
# Revision: 9
# Processed by: cddbd v1.5.2PL0 Copyright (c) Steve Scherf et al.
# Submitted via: ExactAudioCopy v0.99pb5
#
DISCID=a50d900c
DTITLE=Lyle Lovett - It's Not Big It's Large
DYEAR=2007
DGENRE=Country
TTITLE0=Tickle Toe
TTITLE1=I Will Rise Up/Ain't No More Cane
TTITLE2=All Downhill from Here
TTITLE3=Don't Cry a Tear
TTITLE4=South Texas Girl
TTITLE5=This Traveling Around
TTITLE6=Up in Indiana
TTITLE7=The Alley Song
TTITLE8=No Big Deal
TTITLE9=Make It Happy
TTITLE10=Ain't No More Cane
TTITLE11=Up In Indiana (acoustic)
EXTD=
EXTT0=
EXTT1=
EXTT2=
EXTT3=
EXTT4=
EXTT5=
EXTT6=
EXTT7=
EXTT8=
EXTT9=
EXTT10=
EXTT11=
PLAYORDER=
